<svg xmlns="http://www.w3.org/2000/svg" viewBox="0 0 1571.52 412.41"><defs><style>.cls-1{fill:#fff;}</style></defs><g id="Layer_2" data-name="Layer 2"><g id="Layer_1-2" data-name="Layer 1"><path class="cls-1" d="M420.63,265.87l12.49-28c15.54,12.49,40.24,21.37,64.11,21.37,30.25,0,43-10.82,43-25.25,0-41.91-115.44-14.43-115.44-86.59,0-31.36,25-58,78.26-58,23.31,0,47.73,6.11,64.66,17.21l-11.38,28c-17.48-10.27-36.63-15.26-53.56-15.26-30,0-42.18,11.65-42.18,26.36,0,41.35,115.17,14.43,115.17,85.75,0,31.08-25.26,57.72-78.54,57.72C467,289.18,436.73,279.75,420.63,265.87Z"/><path class="cls-1" d="M603.53,93c0-11.65,9.43-20.81,22.19-20.81s22.21,8.6,22.21,20c0,12.21-9.16,21.65-22.21,21.65C613,113.8,603.53,104.64,603.53,93Zm4.71,45.24h34.69V286.41H608.24Z"/><path class="cls-1" d="M936.26,201.49v84.92H901.57V205.93c0-26.36-12.21-39.13-33.3-39.13-22.75,0-38.57,15-38.57,44.4v75.21H795V205.93c0-26.36-12.21-39.13-33.3-39.13-23,0-38.58,15-38.58,44.4v75.21H688.44V138.22h33v18.87c11.1-13.32,28.31-20.54,48.56-20.54,21.65,0,39.69,8,50,24.7,11.94-15.26,31.92-24.7,55.51-24.7C911.29,136.55,936.26,156.81,936.26,201.49Z"/><path class="cls-1" d="M1138,212.31c0,46.07-31.91,76-75.21,76-18.87,0-35.52-6.39-47.45-20v71.87H980.68v-202h33v19.42c11.66-14.15,28.86-21.09,49.12-21.09C1106.12,136.55,1138,166.52,1138,212.31Zm-35.25,0c0-28.31-18.87-46.34-43.84-46.34s-44.13,18-44.13,46.34,19.15,46.34,44.13,46.34S1102.78,240.62,1102.78,212.31Z"/><path class="cls-1" d="M1171.06,80.49h34.69V286.41h-34.69Z"/><path class="cls-1" d="M1238.22,265.87l12.48-28c15.55,12.49,40.24,21.37,64.11,21.37,30.25,0,43-10.82,43-25.25,0-41.91-115.45-14.43-115.45-86.59,0-31.36,25-58,78.26-58,23.31,0,47.73,6.11,64.66,17.21l-11.38,28c-17.48-10.27-36.63-15.26-53.56-15.26-30,0-42.18,11.65-42.18,26.36,0,41.35,115.17,14.43,115.17,85.75,0,31.08-25.26,57.72-78.54,57.72C1284.56,289.18,1254.32,279.75,1238.22,265.87Z"/><path class="cls-1" d="M1413.61,212.31c0-44.4,33.31-75.76,78.82-75.76,46.06,0,79.09,31.36,79.09,75.76s-33,76-79.09,76C1446.92,288.35,1413.61,256.71,1413.61,212.31Zm122.94,0c0-28.31-18.87-46.34-44.12-46.34-25,0-43.85,18-43.85,46.34s18.87,46.34,43.85,46.34C1517.68,258.65,1536.55,240.62,1536.55,212.31Z"/><path class="cls-1" d="M309.73,0,255.87,152.53H23.58c-15.11-.36-13.09,1.66-13.09,1.66l46.8-141A19.32,19.32,0,0,1,75.62,0Z"/><path class="cls-1" d="M223.81,162.19H17.54C.75,162.19-6.41,183.53,7,193.66l253.93,192,49.73-137.8A21.09,21.09,0,0,0,303.71,224Z"/><path class="cls-1" d="M.74,412.41Q31,330.45,61.29,248.5l187,139.42c10.55,7.76,5.06,24.49-8,24.49Z"/></g></g></svg>