<svg id="Layer_1" data-name="Layer 1" xmlns="http://www.w3.org/2000/svg" viewBox="0 0 1080 1080"><defs><style>.cls-1{fill:#1565c0;}.cls-2{fill:#fff;}</style></defs><title>SimplSo Logo</title><rect class="cls-1" y="-1.15" width="1080" height="1080"/><path class="cls-2" d="M274.93,836.09l5.75-12.91c7.16,5.76,18.54,9.85,29.53,9.85,13.93,0,19.82-5,19.82-11.64,0-19.3-53.18-6.64-53.18-39.88,0-14.45,11.5-26.72,36-26.72,10.73,0,22,2.82,29.78,7.93l-5.24,12.91a49.7,49.7,0,0,0-24.67-7c-13.81,0-19.43,5.37-19.43,12.14,0,19,53.05,6.65,53.05,39.5,0,14.32-11.64,26.59-36.18,26.59C296.28,846.83,282.34,842.48,274.93,836.09Z"/><path class="cls-2" d="M359.17,756.45c0-5.36,4.35-9.58,10.23-9.58s10.23,4,10.23,9.2a9.81,9.81,0,0,1-10.23,10C363.52,766,359.17,761.82,359.17,756.45Zm2.18,20.84h16v68.26h-16Z"/><path class="cls-2" d="M512.45,806.44v39.11h-16V808.48c0-12.14-5.63-18-15.34-18-10.48,0-17.77,6.9-17.77,20.45v34.64h-16V808.48c0-12.14-5.62-18-15.34-18-10.61,0-17.77,6.9-17.77,20.45v34.64h-16V777.29H413.5V786c5.12-6.13,13-9.46,22.37-9.46,10,0,18.29,3.71,23,11.38,5.5-7,14.71-11.38,25.57-11.38C500.94,776.52,512.45,785.86,512.45,806.44Z"/><path class="cls-2" d="M605.39,811.42c0,21.22-14.7,35-34.64,35-8.7,0-16.37-2.94-21.86-9.21v33.11h-16V777.29h15.21v9c5.37-6.52,13.29-9.72,22.63-9.72C590.69,776.52,605.39,790.33,605.39,811.42Zm-16.24,0c0-13-8.69-21.35-20.2-21.35s-20.32,8.31-20.32,21.35,8.82,21.35,20.32,21.35S589.15,824.46,589.15,811.42Z"/><path class="cls-2" d="M620.6,750.7h16v94.85h-16Z"/><path class="cls-2" d="M651.54,836.09l5.75-12.91c7.16,5.76,18.54,9.85,29.53,9.85,13.93,0,19.81-5,19.81-11.64,0-19.3-53.17-6.64-53.17-39.88,0-14.45,11.5-26.72,36-26.72,10.73,0,22,2.82,29.78,7.93l-5.24,12.91a49.73,49.73,0,0,0-24.67-7C675.57,768.6,670,774,670,780.74c0,19,53,6.65,53,39.5,0,14.32-11.64,26.59-36.18,26.59C672.89,846.83,659,842.48,651.54,836.09Z"/><path class="cls-2" d="M732.33,811.42c0-20.45,15.34-34.9,36.31-34.9,21.22,0,36.43,14.45,36.43,34.9s-15.21,35-36.43,35C747.67,846.45,732.33,831.87,732.33,811.42Zm56.63,0c0-13-8.69-21.35-20.32-21.35s-20.2,8.31-20.2,21.35,8.69,21.35,20.2,21.35S789,824.46,789,811.42Z"/><path class="cls-2" d="M715.06,209.65,653.75,383.28H389.32c-17.2-.41-14.9,1.89-14.9,1.89L427.7,224.7a22,22,0,0,1,20.86-15Z"/><path class="cls-2" d="M617.26,394.28H382.44c-19.11,0-27.26,24.29-12,35.82L659.49,648.65l56.6-156.86a24,24,0,0,0-7.88-27.12Z"/><path class="cls-2" d="M363.32,679.11q34.47-93.29,68.93-186.58L645.11,651.24c12,8.83,5.76,27.87-9.15,27.87Z"/></svg>