<svg id="Layer_1" data-name="Layer 1" xmlns="http://www.w3.org/2000/svg" viewBox="0 0 1920 1080"><defs><style>.cls-1{fill:#1565c0;}.cls-2{fill:#fff;}</style></defs><rect class="cls-1" y="0.36" width="1920" height="1079.29"/><path class="cls-2" d="M594.88,599.66l12.48-28C622.9,584.13,647.6,593,671.47,593c30.25,0,43-10.83,43-25.26,0-41.9-115.44-14.43-115.44-86.58,0-31.36,25-58,78.26-58,23.31,0,47.73,6.11,64.66,17.21l-11.38,28C713.1,458.14,694,453.14,677,453.14c-30,0-42.18,11.66-42.18,26.36,0,41.35,115.17,14.43,115.17,85.75,0,31.09-25.26,57.73-78.54,57.73C641.22,623,611,613.54,594.88,599.66Z"/><path class="cls-2" d="M777.77,426.78c0-11.66,9.43-20.82,22.19-20.82s22.21,8.61,22.21,20c0,12.2-9.16,21.64-22.21,21.64C787.2,447.59,777.77,438.43,777.77,426.78ZM782.48,472h34.69V620.2H782.48Z"/><path class="cls-2" d="M1110.5,535.28V620.2h-34.69V539.72c0-26.36-12.21-39.12-33.3-39.12-22.75,0-38.57,15-38.57,44.4v75.2H969.25V539.72c0-26.36-12.21-39.12-33.3-39.12-23,0-38.57,15-38.57,44.4v75.2h-34.7V472h33v18.87c11.1-13.32,28.31-20.53,48.56-20.53,21.65,0,39.69,8,50,24.7,11.94-15.27,31.92-24.7,55.51-24.7C1085.53,470.35,1110.5,490.6,1110.5,535.28Z"/><path class="cls-2" d="M1312.27,546.11c0,46.06-31.91,76-75.2,76-18.88,0-35.53-6.38-47.46-20V674h-34.69V472h33v19.43c11.66-14.15,28.87-21.09,49.13-21.09C1280.36,470.35,1312.27,500.32,1312.27,546.11Zm-35.24,0c0-28.31-18.88-46.35-43.85-46.35s-44.13,18-44.13,46.35,19.15,46.34,44.13,46.34S1277,574.41,1277,546.11Z"/><path class="cls-2" d="M1345.3,414.29H1380V620.2H1345.3Z"/><path class="cls-2" d="M1412.46,599.66l12.48-28c15.55,12.49,40.25,21.37,64.11,21.37,30.25,0,43-10.83,43-25.26,0-41.9-115.45-14.43-115.45-86.58,0-31.36,25-58,78.26-58,23.31,0,47.73,6.11,64.66,17.21l-11.38,28c-17.48-10.27-36.63-15.27-53.56-15.27-30,0-42.18,11.66-42.18,26.36,0,41.35,115.17,14.43,115.17,85.75,0,31.09-25.25,57.73-78.54,57.73C1458.8,623,1428.56,613.54,1412.46,599.66Z"/><path class="cls-2" d="M1587.86,546.11c0-44.41,33.3-75.76,78.81-75.76,46.06,0,79.09,31.35,79.09,75.76s-33,76-79.09,76C1621.16,622.14,1587.86,590.51,1587.86,546.11Zm122.93,0c0-28.31-18.87-46.35-44.12-46.35-25,0-43.85,18-43.85,46.35s18.87,46.34,43.85,46.34C1691.92,592.45,1710.79,574.41,1710.79,546.11Z"/><path class="cls-2" d="M484,333.8,430.11,486.32H197.82C182.71,486,184.73,488,184.73,488l46.8-141a19.3,19.3,0,0,1,18.33-13.22Z"/><path class="cls-2" d="M398.05,496H191.78c-16.79,0-23.95,21.34-10.56,31.46l253.94,192,49.72-137.79A21.1,21.1,0,0,0,478,557.82Z"/><path class="cls-2" d="M175,746.2q30.27-81.94,60.55-163.91l187,139.42c10.55,7.76,5.06,24.49-8,24.49Z"/></svg>