<svg id="Layer_1" data-name="Layer 1" xmlns="http://www.w3.org/2000/svg" viewBox="0 0 1080 1080"><defs><style>.cls-1{fill:#1565c0;}.cls-2{fill:#fff;}</style></defs><title>SimplSo Logo</title><rect class="cls-1" width="1080" height="1080"/><path class="cls-2" d="M397.5,685.31l3.48-7.8a30,30,0,0,0,17.85,6c8.43,0,12-3,12-7,0-11.67-32.15-4-32.15-24.11,0-8.74,6.95-16.16,21.8-16.16,6.49,0,13.29,1.7,18,4.79l-3.17,7.81a30.09,30.09,0,0,0-14.92-4.25c-8.35,0-11.75,3.24-11.75,7.34,0,11.52,32.08,4,32.08,23.89,0,8.66-7,16.08-21.88,16.08C410.41,691.81,402,689.18,397.5,685.31Z"/><path class="cls-2" d="M448.44,637.15a5.89,5.89,0,0,1,6.19-5.79c3.55,0,6.18,2.39,6.18,5.56a6.19,6.19,0,0,1-12.37.23Zm1.32,12.6h9.66V691h-9.66Z"/><path class="cls-2" d="M541.13,667.38V691h-9.67V668.62c0-7.35-3.4-10.9-9.27-10.9-6.34,0-10.75,4.17-10.75,12.36V691h-9.66V668.62c0-7.35-3.4-10.9-9.28-10.9-6.41,0-10.74,4.17-10.74,12.36V691H472.1V649.75h9.2V655c3.09-3.71,7.88-5.72,13.52-5.72,6,0,11.06,2.24,13.92,6.88,3.32-4.25,8.89-6.88,15.46-6.88C534.17,649.29,541.13,654.93,541.13,667.38Z"/><path class="cls-2" d="M597.33,670.39c0,12.84-8.89,21.18-21,21.18-5.26,0-9.89-1.77-13.22-5.56v20H553.5V649.75h9.2v5.41c3.24-3.94,8-5.87,13.68-5.87C588.44,649.29,597.33,657.64,597.33,670.39Zm-9.82,0c0-7.88-5.26-12.91-12.21-12.91s-12.29,5-12.29,12.91,5.33,12.91,12.29,12.91S587.51,678.28,587.51,670.39Z"/><path class="cls-2" d="M606.53,633.68h9.66V691h-9.66Z"/><path class="cls-2" d="M625.24,685.31l3.47-7.8a30,30,0,0,0,17.86,6c8.43,0,12-3,12-7,0-11.67-32.15-4-32.15-24.11,0-8.74,7-16.16,21.79-16.16,6.5,0,13.3,1.7,18,4.79L663,648.75a30.09,30.09,0,0,0-14.92-4.25c-8.35,0-11.75,3.24-11.75,7.34,0,11.52,32.08,4,32.08,23.89,0,8.66-7,16.08-21.88,16.08C638.15,691.81,629.72,689.18,625.24,685.31Z"/><path class="cls-2" d="M674.09,670.39c0-12.36,9.28-21.1,22-21.1,12.83,0,22,8.74,22,21.1s-9.2,21.18-22,21.18C683.37,691.57,674.09,682.76,674.09,670.39Zm34.25,0c0-7.88-5.26-12.91-12.29-12.91s-12.22,5-12.22,12.91,5.26,12.91,12.22,12.91S708.34,678.28,708.34,670.39Z"/><path class="cls-2" d="M347.84,743.83c0-6.54,5-11.31,11.71-11.31A10.94,10.94,0,0,1,368,736l-2.06,2a8.18,8.18,0,0,0-6.22-2.62,8.5,8.5,0,1,0,0,17,8.22,8.22,0,0,0,6.22-2.66l2.06,2a11,11,0,0,1-8.44,3.48C352.83,755.14,347.84,750.37,347.84,743.83Z"/><path class="cls-2" d="M381,738v2.93a5.7,5.7,0,0,0-.7,0c-3.25,0-5.27,2-5.27,5.66v8.33h-3V738.14h2.9V741C376,739,378.09,738,381,738Z"/><path class="cls-2" d="M399.66,747.53H386.08c.38,2.93,2.75,4.89,6.06,4.89a6.27,6.27,0,0,0,4.84-2l1.67,2a8.38,8.38,0,0,1-6.6,2.71c-5.4,0-9-3.57-9-8.56a8.2,8.2,0,0,1,8.4-8.52c4.83,0,8.28,3.47,8.28,8.62C399.73,746.86,399.69,747.24,399.66,747.53Zm-13.58-2.18h10.74a5.4,5.4,0,0,0-10.74,0Z"/><path class="cls-2" d="M416.71,744.78v10.1h-2.87v-2.21c-1,1.52-2.87,2.4-5.5,2.4-3.79,0-6.19-2-6.19-4.92,0-2.69,1.74-4.9,6.73-4.9h4.8v-.6c0-2.56-1.48-4-4.48-4a8.46,8.46,0,0,0-5.31,1.8l-1.26-2.28a11.12,11.12,0,0,1,6.91-2.14C414.12,738,416.71,740.2,416.71,744.78Zm-3,5v-2.34H409c-3,0-3.86,1.17-3.86,2.59,0,1.67,1.39,2.72,3.7,2.72A4.87,4.87,0,0,0,413.68,749.77Z"/><path class="cls-2" d="M431.75,753.9a5.68,5.68,0,0,1-3.67,1.17c-3.38,0-5.3-1.86-5.3-5.24v-9.19h-2.85v-2.5h2.85v-3.66h3v3.66h4.8v2.5h-4.8v9.06c0,1.8.95,2.82,2.62,2.82a3.86,3.86,0,0,0,2.37-.79Z"/><path class="cls-2" d="M434.87,733a2,2,0,0,1,2.05-2,2,2,0,1,1-2.05,2Zm.54,5.18h3v16.74h-3Z"/><path class="cls-2" d="M460.1,745.25v9.63h-3V745.6c0-3.29-1.64-4.9-4.51-4.9-3.23,0-5.31,1.93-5.31,5.56v8.62h-3V738.14h2.9v2.53a7.2,7.2,0,0,1,6-2.68C457.23,738,460.1,740.32,460.1,745.25Z"/><path class="cls-2" d="M481.83,738.14v14.47c0,5.91-3,8.59-8.68,8.59-3.07,0-6.16-.85-8-2.49l1.45-2.34a10.2,10.2,0,0,0,6.44,2.18c3.95,0,5.75-1.83,5.75-5.62V751.6a7.64,7.64,0,0,1-6,2.59c-4.83,0-8.5-3.29-8.5-8.12s3.67-8.08,8.5-8.08a7.64,7.64,0,0,1,6.19,2.74v-2.59Zm-3,7.93c0-3.25-2.4-5.43-5.75-5.43s-5.77,2.18-5.77,5.43,2.4,5.47,5.77,5.47A5.39,5.39,0,0,0,478.86,746.07Z"/><path class="cls-2" d="M494.52,752.36l1.17-2.47a11.38,11.38,0,0,0,7.3,2.56c3.82,0,5.46-1.48,5.46-3.41,0-5.4-13.39-2-13.39-10.2,0-3.41,2.66-6.32,8.47-6.32a13,13,0,0,1,7.1,2l-1,2.53a11.45,11.45,0,0,0-6.06-1.8c-3.76,0-5.37,1.58-5.37,3.5,0,5.4,13.39,2,13.39,10.14,0,3.38-2.72,6.29-8.56,6.29C499.61,755.14,496.29,754,494.52,752.36Z"/><path class="cls-2" d="M515.18,733a2,2,0,0,1,2.05-2,2,2,0,1,1-2.05,2Zm.54,5.18h3v16.74h-3Z"/><path class="cls-2" d="M552.32,745.25v9.63h-3V745.6c0-3.29-1.58-4.9-4.33-4.9-3,0-5,1.93-5,5.56v8.62h-3V745.6c0-3.29-1.58-4.9-4.33-4.9-3,0-5,1.93-5,5.56v8.62h-3V738.14h2.9v2.5a6.78,6.78,0,0,1,5.78-2.65,6.19,6.19,0,0,1,5.81,3.09,7.56,7.56,0,0,1,6.45-3.09C549.54,738,552.32,740.32,552.32,745.25Z"/><path class="cls-2" d="M575.25,746.51a8.13,8.13,0,0,1-8.47,8.56,7.14,7.14,0,0,1-5.84-2.71V761h-3V738.14h2.9v2.66a7.12,7.12,0,0,1,6-2.81A8.12,8.12,0,0,1,575.25,746.51Zm-3.07,0a5.64,5.64,0,1,0-5.65,5.91A5.53,5.53,0,0,0,572.18,746.51Z"/><path class="cls-2" d="M579.44,731.45h3v23.43h-3Z"/><path class="cls-2" d="M603.32,747.53H589.74c.38,2.93,2.75,4.89,6.06,4.89a6.27,6.27,0,0,0,4.84-2l1.67,2a8.4,8.4,0,0,1-6.6,2.71c-5.4,0-9-3.57-9-8.56a8.19,8.19,0,0,1,8.4-8.52c4.83,0,8.27,3.47,8.27,8.62C603.38,746.86,603.35,747.24,603.32,747.53Zm-13.58-2.18h10.74a5.4,5.4,0,0,0-10.74,0Z"/><path class="cls-2" d="M614.5,752.36l1.17-2.47a11.33,11.33,0,0,0,7.29,2.56c3.82,0,5.47-1.48,5.47-3.41,0-5.4-13.4-2-13.4-10.2,0-3.41,2.66-6.32,8.47-6.32a13,13,0,0,1,7.1,2l-1,2.53a11.4,11.4,0,0,0-6.06-1.8c-3.76,0-5.37,1.58-5.37,3.5,0,5.4,13.39,2,13.39,10.14,0,3.38-2.71,6.29-8.56,6.29C619.58,755.14,616.27,754,614.5,752.36Z"/><path class="cls-2" d="M634.14,746.51a8.7,8.7,0,1,1,8.72,8.56A8.33,8.33,0,0,1,634.14,746.51Zm14.34,0a5.64,5.64,0,1,0-11.28,0,5.55,5.55,0,0,0,5.66,5.91C646.08,752.42,648.48,750.08,648.48,746.51Z"/><path class="cls-2" d="M655.74,731.45h3v23.43h-3Z"/><path class="cls-2" d="M680.15,738.14v16.74h-2.87v-2.52a6.82,6.82,0,0,1-5.68,2.71c-4.33,0-7.21-2.37-7.21-7.29v-9.64h3v9.29c0,3.29,1.64,4.93,4.51,4.93,3.16,0,5.18-2,5.18-5.56v-8.66Z"/><path class="cls-2" d="M695.34,753.9a5.64,5.64,0,0,1-3.66,1.17c-3.38,0-5.31-1.86-5.31-5.24v-9.19h-2.84v-2.5h2.84v-3.66h3v3.66h4.81v2.5H689.4v9.06c0,1.8,1,2.82,2.63,2.82a3.88,3.88,0,0,0,2.37-.79Z"/><path class="cls-2" d="M698.47,733a2,2,0,0,1,2-2,2,2,0,1,1-2,2Zm.53,5.18h3v16.74h-3Z"/><path class="cls-2" d="M706.27,746.51a8.7,8.7,0,1,1,8.71,8.56A8.32,8.32,0,0,1,706.27,746.51Zm14.34,0a5.65,5.65,0,1,0-5.63,5.91C718.21,752.42,720.61,750.08,720.61,746.51Z"/><path class="cls-2" d="M743.76,745.25v9.63h-3V745.6c0-3.29-1.64-4.9-4.51-4.9-3.22,0-5.31,1.93-5.31,5.56v8.62h-3V738.14h2.9v2.53a7.2,7.2,0,0,1,6-2.68C740.88,738,743.76,740.32,743.76,745.25Z"/><path class="cls-2" d="M747.26,753.12l1.26-2.4a10.77,10.77,0,0,0,5.88,1.73c2.81,0,4-.85,4-2.27,0-3.76-10.58-.51-10.58-7.17,0-3,2.68-5,7-5a12.12,12.12,0,0,1,6.09,1.51l-1.29,2.4a8.74,8.74,0,0,0-4.84-1.32c-2.65,0-3.94,1-3.94,2.3,0,4,10.61.73,10.61,7.23,0,3-2.78,5-7.23,5A12.13,12.13,0,0,1,747.26,753.12Z"/><path class="cls-2" d="M763.77,752.89a2.11,2.11,0,0,1,2.15-2.14,2.08,2.08,0,0,1,2.09,2.14,2.1,2.1,0,0,1-2.09,2.18A2.13,2.13,0,0,1,763.77,752.89Z"/><path class="cls-2" d="M663.76,306.5l-37.07,105H466.79c-10.41-.25-9,1.15-9,1.15l32.22-97a13.27,13.27,0,0,1,12.61-9.1Z"/><path class="cls-2" d="M604.62,418.14h-142c-11.56,0-16.48,14.69-7.27,21.66L630.16,572l34.23-94.85a14.5,14.5,0,0,0-4.77-16.4Z"/><path class="cls-2" d="M451.07,590.39Q471.91,534,492.75,477.56l128.71,96a9.34,9.34,0,0,1-5.53,16.86Z"/></svg>