<svg xmlns="http://www.w3.org/2000/svg" viewBox="0 0 320.58 399.53"><defs><style>.cls-1{fill:#fff;}</style></defs><g id="Layer_2" data-name="Layer 2"><g id="Layer_1-2" data-name="Layer 1"><path class="cls-1" d="M0,378.82,3.48,371A30,30,0,0,0,21.33,377c8.43,0,12-3,12-7,0-11.68-32.16-4-32.16-24.12,0-8.74,7-16.16,21.8-16.16,6.49,0,13.29,1.7,18,4.8l-3.17,7.8A30.06,30.06,0,0,0,22.88,338c-8.35,0-11.75,3.25-11.75,7.34,0,11.52,32.08,4,32.08,23.89,0,8.66-7,16.08-21.88,16.08C12.91,385.31,4.48,382.68,0,378.82Z"/><path class="cls-1" d="M50.94,330.66a5.89,5.89,0,0,1,6.19-5.8c3.55,0,6.18,2.4,6.18,5.57a6.19,6.19,0,0,1-12.37.23Zm1.32,12.6h9.66v41.28H52.26Z"/><path class="cls-1" d="M143.63,360.88v23.66H134V362.12c0-7.34-3.41-10.9-9.28-10.9-6.34,0-10.74,4.17-10.74,12.37v21h-9.67V362.12c0-7.34-3.4-10.9-9.27-10.9-6.42,0-10.75,4.17-10.75,12.37v21H74.6V343.26h9.2v5.25c3.09-3.71,7.88-5.72,13.53-5.72,6,0,11,2.25,13.91,6.88,3.32-4.25,8.89-6.88,15.46-6.88C136.67,342.79,143.63,348.44,143.63,360.88Z"/><path class="cls-1" d="M199.83,363.9c0,12.83-8.89,21.18-21,21.18-5.25,0-9.89-1.78-13.22-5.57v20H156V343.26h9.2v5.41c3.25-3.94,8-5.88,13.68-5.88C190.94,342.79,199.83,351.14,199.83,363.9Zm-9.82,0C190,356,184.76,351,177.8,351s-12.29,5-12.29,12.91,5.33,12.91,12.29,12.91S190,371.78,190,363.9Z"/><path class="cls-1" d="M209,327.18h9.66v57.36H209Z"/><path class="cls-1" d="M227.74,378.82l3.48-7.81A30,30,0,0,0,249.07,377c8.43,0,12-3,12-7,0-11.68-32.16-4-32.16-24.12,0-8.74,7-16.16,21.8-16.16,6.49,0,13.29,1.7,18,4.8l-3.17,7.8A30.09,30.09,0,0,0,250.62,338c-8.35,0-11.75,3.25-11.75,7.34,0,11.52,32.08,4,32.08,23.89,0,8.66-7,16.08-21.88,16.08C240.65,385.31,232.22,382.68,227.74,378.82Z"/><path class="cls-1" d="M276.6,363.9c0-12.37,9.27-21.11,21.95-21.11s22,8.74,22,21.11-9.2,21.18-22,21.18S276.6,376.26,276.6,363.9Zm34.24,0c0-7.89-5.26-12.91-12.29-12.91s-12.21,5-12.21,12.91,5.25,12.91,12.21,12.91S310.84,371.78,310.84,363.9Z"/><path class="cls-1" d="M266.27,0,229.19,105H69.29c-10.4-.24-9,1.15-9,1.15L92.5,9.1A13.28,13.28,0,0,1,105.11,0Z"/><path class="cls-1" d="M207.13,111.65h-142c-11.55,0-16.48,14.69-7.27,21.66L232.67,265.47l34.22-94.86a14.51,14.51,0,0,0-4.77-16.4Z"/><path class="cls-1" d="M53.57,283.89,95.25,171.06,224,267a9.34,9.34,0,0,1-5.54,16.86Z"/></g></g></svg>