<svg width="20" height="21" viewBox="0 0 20 21" fill="none" xmlns="http://www.w3.org/2000/svg">
<path d="M19.2 0.816406H0.8C0.3575 0.816406 0 1.17391 0 1.61641V20.0164C0 20.4589 0.3575 20.8164 0.8 20.8164H19.2C19.6425 20.8164 20 20.4589 20 20.0164V1.61641C20 1.17391 19.6425 0.816406 19.2 0.816406ZM16.89 6.65391H15.2925C14.04 6.65391 13.7975 7.24891 13.7975 8.12391V10.0514H16.7875L16.3975 13.0689H13.7975V20.8164H10.68V13.0714H8.0725V10.0514H10.68V7.82641C10.68 5.24391 12.2575 3.83641 14.5625 3.83641C15.6675 3.83641 16.615 3.91891 16.8925 3.95641V6.65391H16.89Z" fill="white"/>
</svg>
