<svg width="20" height="21" viewBox="0 0 20 21" fill="none" xmlns="http://www.w3.org/2000/svg">
<path d="M9.99713 7.48165C8.16089 7.48165 6.66238 8.98017 6.66238 10.8164C6.66238 12.6526 8.16089 14.1512 9.99713 14.1512C11.8334 14.1512 13.3319 12.6526 13.3319 10.8164C13.3319 8.98017 11.8334 7.48165 9.99713 7.48165ZM19.9989 10.8164C19.9989 9.43547 20.0114 8.06705 19.9338 6.68862C19.8563 5.08754 19.491 3.66658 18.3203 2.49578C17.147 1.32249 15.7285 0.959747 14.1274 0.882194C12.7465 0.804642 11.3781 0.81715 9.99963 0.81715C8.6187 0.81715 7.25028 0.804642 5.87184 0.882194C4.27076 0.959747 2.8498 1.32499 1.67901 2.49578C0.505719 3.66908 0.142974 5.08754 0.0654218 6.68862C-0.0121306 8.06955 0.000377902 9.43797 0.000377902 10.8164C0.000377902 12.1948 -0.0121306 13.5658 0.0654218 14.9442C0.142974 16.5453 0.508221 17.9662 1.67901 19.137C2.8523 20.3103 4.27076 20.6731 5.87184 20.7506C7.25278 20.8282 8.6212 20.8157 9.99963 20.8157C11.3806 20.8157 12.749 20.8282 14.1274 20.7506C15.7285 20.6731 17.1495 20.3078 18.3203 19.137C19.4935 17.9637 19.8563 16.5453 19.9338 14.9442C20.0139 13.5658 19.9989 12.1973 19.9989 10.8164ZM9.99713 15.9474C7.15771 15.9474 4.86617 13.6558 4.86617 10.8164C4.86617 7.97699 7.15771 5.68544 9.99713 5.68544C12.8365 5.68544 15.1281 7.97699 15.1281 10.8164C15.1281 13.6558 12.8365 15.9474 9.99713 15.9474ZM15.3382 6.67361C14.6753 6.67361 14.1399 6.13825 14.1399 5.4753C14.1399 4.81235 14.6753 4.27699 15.3382 4.27699C16.0012 4.27699 16.5366 4.81235 16.5366 5.4753C16.5367 5.63272 16.5059 5.78863 16.4457 5.9341C16.3856 6.07958 16.2973 6.21176 16.186 6.32307C16.0747 6.43438 15.9425 6.52264 15.797 6.58279C15.6516 6.64294 15.4957 6.6738 15.3382 6.67361Z" fill="white"/>
</svg>
