<svg width="20" height="21" viewBox="0 0 20 21" fill="none" xmlns="http://www.w3.org/2000/svg">
<path d="M18.5182 0.816406H1.47602C0.661023 0.816406 -0.000366211 1.46224 -0.000366211 2.25752V19.3734C-0.000366211 20.1697 0.661023 20.8164 1.47602 20.8164H18.5182C19.3338 20.8164 19.9996 20.1697 19.9996 19.3734V2.25752C19.9996 1.46224 19.3338 0.816406 18.5182 0.816406ZM5.9313 17.8592H2.96352V8.31502H5.9313V17.8592ZM4.44741 7.01002C4.22152 7.01002 3.99784 6.96551 3.78915 6.87903C3.58047 6.79255 3.39087 6.66579 3.23119 6.50601C3.07151 6.34623 2.94488 6.15655 2.85853 5.94781C2.77219 5.73907 2.72782 5.51536 2.72797 5.28946C2.72797 4.83347 2.90911 4.39616 3.23154 4.07373C3.55397 3.7513 3.99128 3.57016 4.44727 3.57016C4.90326 3.57016 5.34057 3.7513 5.66301 4.07373C5.98544 4.39616 6.16658 4.83347 6.16658 5.28946C6.16658 5.74554 5.9855 6.18296 5.66313 6.50559C5.34076 6.82821 4.90349 7.00965 4.44741 7.01002ZM17.0413 17.8592H14.0782V13.2181C14.0782 12.1109 14.0566 10.6872 12.5363 10.6872C10.9924 10.6872 10.7571 11.8931 10.7571 13.1378V17.8595H7.79186V8.31502H10.6377V9.61835H10.6782C11.0744 8.86835 12.0421 8.07696 13.4855 8.07696C16.4871 8.07696 17.0416 10.0531 17.0416 12.6239V17.8592H17.0413Z" fill="white"/>
</svg>
