<svg width="105" height="105" viewBox="0 0 105 105" fill="none" xmlns="http://www.w3.org/2000/svg">
<path d="M60.4239 98.2733V96.5158L58.6882 96.7919C53.7777 97.5731 48.9854 97.5731 44.0749 96.7919L42.3392 96.5158V98.2733C42.3392 98.6053 42.3361 98.7921 42.2689 99.061L42.2324 99.2066L42.2256 99.3567C42.1415 101.208 40.8356 102.566 39.1748 102.647C35.5286 102.761 31.9969 102.761 28.3506 102.647C26.5854 102.566 25.188 101.116 25.188 99.0793V99.0625V99.0456V99.0287V99.0119V98.995V98.9782V98.9613V98.9445V98.9276V98.9108V98.8939V98.8771V98.8603V98.8434V98.8266V98.8098V98.793V98.7761V98.7593V98.7425V98.7257V98.7089V98.692V98.6752V98.6584V98.6416V98.6248V98.608V98.5912V98.5744V98.5576V98.5409V98.5241V98.5073V98.4905V98.4737V98.4569V98.4402V98.4234V98.4066V98.3899V98.3731V98.3563V98.3396V98.3228V98.306V98.2893V98.2725V98.2558V98.239V98.2223V98.2055V98.1888V98.1721V98.1553V98.1386V98.1218V98.1051V98.0884V98.0716V98.0549V98.0382V98.0215V98.0047V97.988V97.9713V97.9546V97.9379V97.9212V97.9045V97.8878V97.871V97.8543V97.8376V97.8209V97.8042V97.7875V97.7709V97.7542V97.7375V97.7208V97.7041V97.6874V97.6707V97.654V97.6374V97.6207V97.604V97.5873V97.5707V97.554V97.5373V97.5207V97.504V97.4873V97.4707V97.454V97.4373V97.4207V97.404V97.3874V97.3707V97.3541V97.3374V97.3208V97.3041V97.2875V97.2708V97.2542V97.2375V97.2209V97.2043V97.1876V97.171V97.1544V97.1377V97.1211V97.1045V97.0878V97.0712V97.0546V97.038V97.0213V97.0047V96.9881V96.9715V96.9549V96.9383V96.9216V96.905V96.8884V96.8718V96.8552V96.8386V96.822V96.8054V96.7888V96.7722V96.7556V96.739V96.7224V96.7058V96.6892V96.6726V96.656V96.6394V96.6228V96.6062V96.5896V96.573V96.5564V96.5399V96.5233V96.5067V96.4901V96.4735V96.4569V96.4404V96.4238V96.4072V96.3906V96.3741V96.3575V96.3409V96.3243V96.3078V96.2912V96.2746V96.258V96.2415V96.2249V96.2083V96.1918V96.1752V96.1586V96.1421V96.1255V96.109V96.0924V96.0758V96.0593V96.0427V96.0262V96.0096V95.993V95.9765V95.9599V95.9434V95.9268V95.9103V95.8937V95.8772V95.8606V95.8441V95.8275V95.811V95.7944V95.7779V95.7613V95.7448V95.7282V95.7117V95.6951V95.6786V95.6621V95.6455V95.629V95.6124V95.5959V95.5793V95.5628V95.5463V95.5297V95.5132V95.4966V95.4801V95.4636V95.447V95.4305V95.4139V95.3974V95.3809V95.3643V95.3478V95.3313V95.3147V95.2982V95.2817V95.2651V95.2486V95.2321V95.2155V95.199V95.1825V95.1659V95.1494V95.1329V95.1163V95.0998V95.0833V95.0667V95.0502V95.0337V95.0171V95.0006V94.9841V94.9676V94.951V94.9345V94.918V94.9014V94.8849V94.8684V94.8518V94.8353V94.8188V94.8022V94.7857V94.7692V94.7527V94.7361V94.7196V94.7031V94.6865V94.67V94.6535V94.6369V94.6204V94.6039V94.5873V94.5708V94.5543V94.5378V94.5212V94.5047V94.4882V94.4716V94.4551V94.4386V94.422V94.4055V94.389V94.3724V94.3559V94.3394V94.3228V94.3063V94.2897V94.2732V94.2567V94.2401V94.2236V94.2071V94.1905V94.174V94.1575V94.1409V94.1244V94.1078V94.0913V94.0748V94.0582V94.0417V94.0251V94.0086V93.9921V93.9755V93.959V93.9424V93.9259V93.9093V93.8928V93.8762V93.8597V93.8431V93.8266V93.81V93.7935V93.7769V93.7604V93.7438V93.7273V93.7107V93.6942V93.6776V93.6611V93.6445V93.628V93.6114V93.5948V93.5783V93.5617V93.5452V93.5286V93.512V93.4955V93.4789V93.4623V93.4458V93.4292V93.4127V93.3961V93.3795V93.3629V93.3464V93.3298V93.3132V93.2967V93.2801V93.2635V93.2469V93.2303V93.2138V93.1972V93.1806V93.164V93.1474V93.1309V93.1143V93.0977V93.0811V93.0645V93.0479V93.0313V93.0148V92.9982V92.9816V92.965V92.9484V92.9318V92.9152V92.8986V92.882V92.8654V92.8488V92.8322V92.8156V92.799V92.7824V92.7657V92.7491V92.7325V92.7159V92.6993V92.6827V92.6661V92.6495V92.6328V92.6162V92.5996V92.583V92.5663V92.5497V92.5331V92.5165V92.4998V92.4832V92.4666V92.4499V92.4333V92.4166V92.4V92.3834V92.3667V92.3501V92.3334V92.3168V92.3001V92.2835V92.2668V92.2502V92.2335V92.2169V92.2002V92.1836V92.1669V92.1502V92.1336V92.1169V92.1002V92.0836V92.0669V92.0502V92.0335V92.0169V92.0002V91.9835V91.9668V91.9501V91.9335V91.9168V91.9001V91.8834V91.8667V91.85V91.8333V91.8166V91.7999V91.7832V91.7665V91.7498V91.7331V91.7164V91.6997V91.683V91.6662V91.6495V91.6328V91.6161V91.5994V91.5826V91.5659V91.5492V91.5325V91.5157V91.499V91.4822V91.4655V91.4488V91.432V91.4153V91.3985V91.3818V91.365V91.3483V91.3315V91.3148V91.298V91.2812V91.2645V91.2477V91.2309V91.2142V91.1974V91.1806V91.1638V91.1471V91.1303V91.1135V91.0967V91.0799V91.0631V91.0463V91.0295V91.0127V90.9959V90.9791V90.9623V90.9455V90.9287V90.9119V90.8951V90.8783V90.8614V90.8446V90.8278V90.811V90.7941V90.7773V90.7605V90.7436V90.7268V90.7099V90.6931V90.6762V90.6594V90.6425V90.6257V90.6088V90.592V90.5751V90.5582C25.188 90.1475 25.1577 89.6396 24.9564 89.1221C24.7438 88.5755 24.3915 88.1427 23.9428 87.7818C17.062 82.1193 12.5409 74.9406 10.7688 66.216C10.6724 65.6654 10.4245 65.0108 9.78082 64.5817C9.20701 64.1991 8.57458 64.1858 8.25787 64.1858C7.3431 64.1858 6.63475 64.1842 5.83603 64.0872C3.41251 63.6337 1.51431 61.2405 1.69393 58.5329C1.8679 56.0233 4.05684 53.9322 6.78486 53.8285C6.91956 53.8296 7.07869 53.8395 7.28748 53.8549C7.3136 53.8569 7.34069 53.8589 7.36862 53.861C7.55759 53.8751 7.78494 53.8922 8.00638 53.8995C8.44691 53.9142 9.25231 53.9186 9.95081 53.4995C10.4184 53.2189 10.6937 52.8188 10.8572 52.4918C11.0184 52.1695 11.1113 51.837 11.1724 51.5753C11.2244 51.3523 11.2671 51.1159 11.3015 50.9255C11.3074 50.8925 11.3131 50.8609 11.3186 50.8309C11.3602 50.6032 11.3922 50.4456 11.4274 50.3223L11.4292 50.3159C14.1965 40.4643 20.1567 33.0502 28.9538 27.7039C29.1249 27.6016 29.2331 27.5569 29.2925 27.5378C29.2948 27.5396 29.2971 27.5415 29.2996 27.5434C29.3712 27.6005 29.4837 27.7112 29.6432 27.9163L29.6514 27.9267L29.6597 27.937C39.0062 39.5268 56.6262 37.1438 62.6017 23.4499L62.611 23.4286L62.6196 23.4071C62.7002 23.2057 62.9008 22.9592 63.2363 22.7002C67.0086 20.3004 70.8956 17.8997 74.6708 15.6117L74.6769 15.608L74.6829 15.6043C75.597 15.0384 76.2094 15.0961 76.5336 15.2453C76.8633 15.397 77.3061 15.8326 77.4804 16.8785L77.4814 16.8843C77.8829 19.2363 78.256 21.5608 78.6304 23.8937L78.6306 23.8947C79.0046 26.225 79.3799 28.5638 79.7844 30.9326L79.794 30.9888L79.8078 31.044C79.9756 31.7153 80.3202 32.4345 80.8932 33.0075L80.9025 33.0168L80.912 33.026C84.1469 36.1493 86.797 39.5799 88.7807 43.6575L88.8095 43.7166L88.8433 43.773C89.0763 44.1614 89.393 44.5783 89.8654 44.882C90.3643 45.2027 90.8947 45.3073 91.3962 45.3073C92.0151 45.3073 92.6174 45.2998 93.2083 45.2925C94.9106 45.2714 96.5181 45.2514 98.1534 45.4148C100.673 45.6768 102.563 47.8611 102.563 50.486V50.5157V50.5454V50.5751V50.6047V50.6344V50.6641V50.6938V50.7234V50.7531V50.7827V50.8124V50.8421V50.8717V50.9014V50.931V50.9607V50.9903V51.02V51.0496V51.0792V51.1089V51.1385V51.1681V51.1978V51.2274V51.257V51.2866V51.3162V51.3459V51.3755V51.4051V51.4347V51.4643V51.4939V51.5235V51.5531V51.5827V51.6123V51.6419V51.6715V51.7011V51.7307V51.7603V51.7898V51.8194V51.849V51.8786V51.9081V51.9377V51.9673V51.9968V52.0264V52.056V52.0855V52.1151V52.1447V52.1742V52.2038V52.2333V52.2629V52.2924V52.322V52.3515V52.381V52.4106V52.4401V52.4696V52.4992V52.5287V52.5582V52.5878V52.6173V52.6468V52.6763V52.7059V52.7354V52.7649V52.7944V52.8239V52.8534V52.8829V52.9124V52.9419V52.9714V53.0009V53.0304V53.0599V53.0894V53.1189V53.1484V53.1779V53.2074V53.2369V53.2664V53.2959V53.3253V53.3548V53.3843V53.4138V53.4433V53.4727V53.5022V53.5317V53.5611V53.5906V53.6201V53.6495V53.679V53.7085V53.7379V53.7674V53.7968V53.8263V53.8558V53.8852V53.9147V53.9441V53.9736V54.003V54.0325V54.0619V54.0913V54.1208V54.1502V54.1797V54.2091V54.2385V54.268V54.2974V54.3268V54.3563V54.3857V54.4151V54.4445V54.474V54.5034V54.5328V54.5622V54.5917V54.6211V54.6505V54.6799V54.7093V54.7388V54.7682V54.7976V54.827V54.8564V54.8858V54.9152V54.9446V54.974V55.0034V55.0328V55.0622V55.0916V55.121V55.1504V55.1798V55.2092V55.2386V55.268V55.2974V55.3268V55.3562V55.3856V55.415V55.4444V55.4738V55.5032V55.5326V55.5619V55.5913V55.6207V55.6501V55.6795V55.7089V55.7382V55.7676V55.797V55.8264V55.8558V55.8851V55.9145V55.9439V55.9733V56.0026V56.032V56.0614V56.0908V56.1201V56.1495V56.1789V56.2082V56.2376V56.267V56.2963V56.3257V56.3551V56.3844V56.4138V56.4432V56.4725V56.5019V56.5313V56.5606V56.59V56.6194V56.6487V56.6781V56.7074V56.7368V56.7662V56.7955V56.8249V56.8542V56.8836V56.913V56.9423V56.9717V57.001V57.0304V57.0597V57.0891V57.1184V57.1478V57.1772V57.2065V57.2359V57.2652V57.2946V57.3239V57.3533V57.3826V57.412V57.4413V57.4707V57.5V57.5294V57.5587V57.5881V57.6174V57.6468V57.6761V57.7055V57.7348V57.7642V57.7935V57.8229V57.8522V57.8816V57.9109V57.9403V57.9696V57.999V58.0283V58.0577V58.087V58.1164V58.1457V58.1751V58.2044V58.2338V58.2631V58.2925V58.3218V58.3512V58.3805V58.4099V58.4392V58.4686V58.4979V58.5273V58.5566V58.586V58.6153V58.6447V58.674V58.7034V58.7328V58.7621V58.7915V58.8208V58.8502V58.8795V58.9089V58.9382V58.9676V58.9969V59.0263V59.0557V59.085V59.1144V59.1437V59.1731V59.2024V59.2318V59.2612V59.2905V59.3199V59.3492V59.3786V59.408V59.4373V59.4667V59.496V59.5254V59.5548V59.5841V59.6135V59.6429V59.6722V59.7016V59.731V59.7603V59.7897V59.8191V59.8484V59.8778V59.9072V59.9365V59.9659V59.9953V60.0247V60.054V60.0834V60.1128V60.1422V60.1715V60.2009V60.2303V60.2597V60.2891V60.3184V60.3478V60.3772V60.4066V60.436V60.4654V60.4947V60.5241V60.5535V60.5829V60.6123V60.6417V60.6711V60.7005V60.7299V60.7592V60.7886V60.818V60.8474V60.8768V60.9062V60.9356V60.965V60.9944V61.0238V61.0532V61.0826V61.112V61.1415V61.1709V61.2003V61.2297V61.2591V61.2885V61.3179V61.3473V61.3768V61.4062V61.4356V61.465V61.4944V61.5239V61.5533V61.5827V61.6121V61.6416V61.671V61.7004V61.7298V61.7593V61.7887V61.8181V61.8476V61.877V61.9065V61.9359V61.9653V61.9948V62.0242V62.0537V62.0831V62.1126V62.142V62.1715V62.2009V62.2304V62.2598V62.2893V62.3187V62.3482V62.3777V62.4071V62.4366V62.4661V62.4955V62.525V62.5545V62.5839V62.6134V62.6429V62.6724V62.7019V62.7313V62.7608V62.7903V62.8198V62.8493V62.8788V62.9082V62.9377V62.9672V62.9967V63.0262V63.0557V63.0852V63.1147V63.1442V63.1737V63.2033V63.2328V63.2623V63.2918V63.3213V63.3508V63.3803V63.4099V63.4394V63.4689V63.4984V63.528V63.5575V63.587V63.6166V63.6461V63.6756V63.7052V63.7347V63.7643V63.7938V63.8234V63.8529V63.8825V63.912V63.9416V63.9711V64.0007V64.0303V64.0598V64.0894V64.119V64.1485V64.1781V64.2077V64.2373V64.2668V64.2964V64.326V64.3556V64.3852V64.4148V64.4444V64.474V64.5036V64.5332V64.5628V64.5924V64.622V64.6516V64.6812V64.7108V64.7404V64.77V64.7997V64.8293V64.8589V64.8885V64.9182V64.9478V64.9774V65.0071V65.0367V65.0664V65.096V65.1257V65.1553V65.185V65.2146V65.2443V65.2739V65.3036V65.3333V65.3629V65.3926V65.4223V65.4519V65.4816V65.5113V65.541V65.5707C102.563 68.4464 100.547 70.5703 97.6359 70.7523L97.6297 70.7527C95.9689 70.8634 94.3083 70.8634 92.6475 70.7527L92.5976 70.7494H92.5477C92.2156 70.7494 91.6378 70.7677 91.0946 71.1134C90.533 71.4708 90.2697 72.0054 90.1186 72.3832L90.1152 72.3918C87.686 78.5753 83.8286 83.7663 78.6316 87.9784C78.178 88.3068 77.9024 88.7604 77.7441 89.1222C77.5695 89.5211 77.46 89.9841 77.46 90.4431V90.4599V90.4768V90.4937V90.5106V90.5274V90.5443V90.5611V90.578V90.5949V90.6118V90.6286V90.6455V90.6624V90.6792V90.6961V90.713V90.7298V90.7467V90.7636V90.7804V90.7973V90.8142V90.831V90.8479V90.8648V90.8816V90.8985V90.9154V90.9322V90.9491V90.966V90.9828V90.9997V91.0166V91.0334V91.0503V91.0672V91.0841V91.1009V91.1178V91.1347V91.1515V91.1684V91.1853V91.2021V91.219V91.2359V91.2527V91.2696V91.2865V91.3033V91.3202V91.3371V91.3539V91.3708V91.3877V91.4045V91.4214V91.4383V91.4551V91.472V91.4889V91.5057V91.5226V91.5395V91.5563V91.5732V91.5901V91.6069V91.6238V91.6407V91.6576V91.6744V91.6913V91.7082V91.725V91.7419V91.7588V91.7756V91.7925V91.8094V91.8262V91.8431V91.86V91.8768V91.8937V91.9106V91.9274V91.9443V91.9612V91.978V91.9949V92.0118V92.0286V92.0455V92.0624V92.0792V92.0961V92.113V92.1298V92.1467V92.1636V92.1805V92.1973V92.2142V92.231V92.2479V92.2648V92.2817V92.2985V92.3154V92.3323V92.3491V92.366V92.3829V92.3997V92.4166V92.4335V92.4503V92.4672V92.4841V92.5009V92.5178V92.5347V92.5515V92.5684V92.5853V92.6021V92.619V92.6359V92.6527V92.6696V92.6865V92.7033V92.7202V92.7371V92.754V92.7708V92.7877V92.8046V92.8214V92.8383V92.8552V92.872V92.8889V92.9058V92.9226V92.9395V92.9564V92.9732V92.9901V93.007V93.0238V93.0407V93.0576V93.0744V93.0913V93.1082V93.125V93.1419V93.1588V93.1756V93.1925V93.2094V93.2262V93.2431V93.26V93.2768V93.2937V93.3106V93.3275V93.3443V93.3612V93.3781V93.3949V93.4118V93.4287V93.4455V93.4624V93.4793V93.4961V93.513V93.5299V93.5467V93.5636V93.5805V93.5973V93.6142V93.6311V93.6479V93.6648V93.6817V93.6985V93.7154V93.7323V93.7491V93.766V93.7829V93.7997V93.8166V93.8335V93.8503V93.8672V93.8841V93.901V93.9178V93.9347V93.9516V93.9684V93.9853V94.0022V94.019V94.0359V94.0528V94.0696V94.0865V94.1034V94.1202V94.1371V94.154V94.1708V94.1877V94.2046V94.2214V94.2383V94.2552V94.272V94.2889V94.3058V94.3226V94.3395V94.3564V94.3732V94.3901V94.407V94.4239V94.4407V94.4576V94.4745V94.4913V94.5082V94.5251V94.5419V94.5588V94.5757V94.5925V94.6094V94.6263V94.6431V94.66V94.6769V94.6937V94.7106V94.7275V94.7443V94.7612V94.7781V94.7949V94.8118V94.8287V94.8455V94.8624V94.8793V94.8961V94.913V94.9299V94.9467V94.9636V94.9805V94.9974V95.0142V95.0311V95.048V95.0648V95.0817V95.0986V95.1154V95.1323V95.1492V95.166V95.1829V95.1998V95.2166V95.2335V95.2504V95.2672V95.2841V95.301V95.3178V95.3347V95.3516V95.3684V95.3853V95.4022V95.419V95.4359V95.4528V95.4696V95.4865V95.5034V95.5202V95.5371V95.554V95.5709V95.5877V95.6046V95.6215V95.6383V95.6552V95.6721V95.6889V95.7058V95.7227V95.7395V95.7564V95.7733V95.7901V95.807V95.8239V95.8407V95.8576V95.8745V95.8913V95.9082V95.9251V95.9419V95.9588V95.9757V95.9925V96.0094V96.0263V96.0431V96.06V96.0769V96.0938V96.1106V96.1275V96.1444V96.1612V96.1781V96.195V96.2118V96.2287V96.2456V96.2624V96.2793V96.2962V96.313V96.3299V96.3468V96.3636V96.3805V96.3974V96.4142V96.4311V96.448V96.4648V96.4817V96.4986V96.5154V96.5323V96.5492V96.566V96.5829V96.5998V96.6166V96.6335V96.6504V96.6673V96.6841V96.701V96.7179V96.7347V96.7516V96.7685V96.7853V96.8022V96.8191V96.8359V96.8528V96.8697V96.8865V96.9034V96.9203V96.9371V96.954V96.9709V96.9877V97.0046V97.0215V97.0383V97.0552V97.0721V97.0889V97.1058V97.1227V97.1395V97.1564V97.1733V97.1901V97.207V97.2239V97.2408V97.2576V97.2745V97.2914V97.3082V97.3251V97.342V97.3588V97.3757V97.3926V97.4094V97.4263V97.4432V97.46V97.4769V97.4938V97.5106V97.5275V97.5444V97.5612V97.5781V97.595V97.6118V97.6287V97.6456V97.6624V97.6793V97.6962V97.7131V97.7299V97.7468V97.7636V97.7805V97.7974V97.8143V97.8311V97.848V97.8649V97.8817V97.8986V97.9155V97.9323V97.9492V97.9661V97.9829V97.9998V98.0167V98.0335V98.0504V98.0673V98.0841V98.101V98.1179V98.1347V98.1516V98.1685V98.1853V98.2022V98.2191V98.2359V98.2528V98.2697V98.2866V98.3034V98.3203V98.3372V98.354V98.3709V98.3878V98.4046V98.4215V98.4384V98.4552V98.4721V98.489V98.5058V98.5227V98.5396V98.5564V98.5733V98.5902V98.607V98.6239V98.6408V98.6576V98.6745V98.6914V98.7082V98.7251V98.742V98.7588V98.7757V98.7926V98.8094V98.8263V98.8432V98.8601V98.8769V98.8938V98.9107V98.9275V98.9444V98.9613V98.9781V98.995V99.0119V99.0287V99.0456V99.0625V99.0793C77.46 101.209 76.0836 102.679 74.0684 102.762C70.65 102.876 67.2329 102.876 63.9318 102.762C62.8322 102.717 62.034 102.332 61.4993 101.779C60.959 101.22 60.5831 100.381 60.5378 99.2497L60.5293 99.0371L60.4621 98.8353C60.441 98.7721 60.436 98.7417 60.4321 98.6988C60.4252 98.6224 60.4239 98.5243 60.4239 98.2733ZM29.3501 27.5244C29.35 27.5247 29.3464 27.5253 29.3396 27.5255C29.3469 27.5242 29.3502 27.5241 29.3501 27.5244ZM29.2483 27.5073C29.2475 27.507 29.2472 27.5068 29.2472 27.5068L29.2483 27.5073Z" stroke="white" stroke-width="3"/>
<path d="M77.7327 46.4285C77.7327 49.3156 75.5329 51.6529 72.6458 51.6529C69.7586 51.6529 67.5588 49.4531 67.5588 46.566C67.5588 43.6788 69.8961 41.3416 72.6458 41.3416C75.3954 41.3416 77.7327 43.6788 77.7327 46.4285Z" fill="#FFC20F"/>
<path d="M44.3129 27.2397C51.8221 27.2397 57.9095 21.1523 57.9095 13.6431C57.9095 6.13382 51.8221 0.0463867 44.3129 0.0463867C36.8036 0.0463867 30.7162 6.13382 30.7162 13.6431C30.7162 21.1523 36.8036 27.2397 44.3129 27.2397Z" fill="#FFC20F"/>
<path d="M38.7559 11.5147V9.5048H44.0764C43.9581 9.15011 43.9581 8.91364 43.7217 8.67718C43.4852 8.44072 43.367 8.32248 43.2487 8.08602H38.7559V5.60315H49.8697V8.08602H46.6775C46.7957 8.20425 46.9139 8.44072 47.0322 8.67718C47.1504 8.91364 47.2686 9.15011 47.3869 9.62304H49.8697V11.633H47.6233C47.6233 12.1059 47.5051 12.5788 47.2686 13.0518C47.0322 13.4065 46.7957 13.8794 46.3228 14.2341C45.9681 14.5888 45.4951 14.8252 45.0222 15.0617C44.5493 15.1799 44.0764 15.4164 43.6034 15.4164L47.7415 19.5545L45.1404 21.5645L41.4753 17.0716C41.2388 16.7169 40.8841 16.3623 40.6476 16.1258C40.4112 15.8893 40.1747 15.6529 39.9382 15.4164C39.7018 15.1799 39.5835 14.9435 39.2288 14.707L40.0565 12.6971C40.2929 12.8153 40.5294 12.8153 40.7659 12.8153C40.8841 12.9335 41.1206 12.9335 41.4753 12.9335C42.3029 12.9335 42.894 12.8153 43.2487 12.5788C43.6034 12.3424 43.9581 11.9877 43.9581 11.633L38.7559 11.5147Z" fill="white"/>
</svg>
