<svg width="69" height="76" viewBox="0 0 69 76" fill="none" xmlns="http://www.w3.org/2000/svg">
<g clip-path="url(#clip0)">
<path d="M33.8932 0.848267C33.961 0.848267 34.0966 0.848267 34.1644 0.848267C34.639 0.98463 35.1135 1.18918 35.5203 1.53008C36.3339 2.28008 37.1474 2.9619 38.0288 3.64372C41.5542 6.43918 45.4864 8.55281 49.7576 9.98463C52.3339 10.871 54.9101 11.5528 57.622 11.8937C59.2491 12.0983 60.8762 12.2346 62.5034 12.3028C63.6559 12.371 64.7406 12.3028 65.8932 12.3028C66.1644 12.3028 66.4356 12.371 66.7068 12.4392C67.5881 12.7801 67.9949 13.5301 67.9949 14.621C67.9949 19.8028 67.9949 24.9164 67.5203 30.0983C67.3169 32.0755 67.1813 34.0528 66.9101 36.0301C66.639 38.0755 66.2322 40.121 65.7576 42.1664C64.944 45.9846 63.7237 49.7346 62.0288 53.2801C59.4525 58.6664 55.9271 63.371 51.2491 67.121C47.7237 69.9846 43.8593 72.1664 39.6559 73.871C37.8932 74.5528 36.1305 75.1664 34.3678 75.7801C34.1644 75.7801 33.961 75.7801 33.7576 75.7801C33.622 75.7119 33.4864 75.7119 33.3508 75.6437C29.1474 74.3483 25.1474 72.5755 21.3508 70.2574C17.3508 67.8028 13.8932 64.8028 10.9101 61.121C7.85929 57.3028 5.62201 53.0074 3.99489 48.371C2.50336 44.0755 1.55421 39.7119 1.01184 35.2119C0.740649 33.0301 0.537259 30.7801 0.33387 28.5983C0.266073 26.3483 0.198276 24.0301 0.13048 21.7119C0.0626831 19.3255 0.13048 16.9392 0.0626831 14.621C0.0626831 13.3255 1.01184 12.371 2.29997 12.371C5.62201 12.5074 8.87624 12.3028 12.1305 11.6892C16.4017 10.871 20.5373 9.43917 24.4017 7.32554C27.0457 5.89372 29.4864 4.18918 31.7915 2.2119C32.4695 1.66645 33.0118 0.98463 33.8932 0.848267ZM4.33387 16.7346C4.33387 16.8028 4.33387 16.871 4.33387 16.9392C4.40167 19.9392 4.46946 22.9392 4.53726 25.9392C4.60506 28.121 4.74065 30.371 5.01184 32.5528C5.28302 34.8028 5.62201 37.121 6.02879 39.371C6.77455 43.5983 8.06268 47.621 9.89319 51.5074C12.6051 57.2346 16.5373 61.9392 21.7576 65.5528C25.4186 68.1437 29.4186 69.9846 33.622 71.3483C33.8254 71.4164 34.0966 71.4164 34.3 71.3483C40.1305 69.4392 45.5542 66.6437 50.0966 62.4164C52.1305 60.5074 53.961 58.3937 55.5203 56.0755C57.6898 52.871 59.2491 49.3937 60.4017 45.7119C61.8254 41.3483 62.639 36.8483 63.0457 32.2119C63.2491 29.8937 63.4525 27.5755 63.5881 25.2574C63.7237 22.5301 63.7237 19.8028 63.7915 17.1437C63.7915 17.0074 63.7915 16.871 63.7915 16.7346C52.6729 16.5301 42.7068 13.121 34.0966 5.9619C25.4186 13.121 15.4525 16.5301 4.33387 16.7346Z" fill="white"/>
<path d="M34.0966 19.3937C44.0627 19.3937 51.9271 27.3709 52.2661 36.9846C52.6051 47.5528 44.2661 55.5982 34.639 55.8709C24.1983 56.1437 16.4017 47.8255 15.9949 38.5528C15.5203 27.78 24.1305 19.3937 34.0966 19.3937ZM34.2322 53.3482C42.8423 53.3482 49.8254 46.3937 49.8254 37.7346C49.8254 29.0755 42.9101 22.0528 34.2322 22.0528C25.622 22.0528 18.639 29.0073 18.639 37.7346C18.639 46.3937 25.622 53.3482 34.2322 53.3482Z" fill="#FFC20F"/>
<path d="M41.5542 31.1892C42.2322 31.871 42.9101 32.5528 43.5203 33.1665C39.1813 37.4619 34.9101 41.7574 30.6389 46.0528C28.3339 43.7347 25.961 41.4165 23.6559 39.0983C24.3339 38.4847 24.944 37.8028 25.5542 37.1892C27.1813 38.8256 28.8762 40.5301 30.5034 42.2347C34.2322 38.4847 37.8932 34.8028 41.5542 31.1892Z" fill="#FFC20F"/>
</g>
<defs>
<clipPath id="clip0">
<rect width="68" height="75" fill="white" transform="translate(0.0626831 0.848267)"/>
</clipPath>
</defs>
</svg>
