<svg width="66" height="91" viewBox="0 0 66 91" fill="none" xmlns="http://www.w3.org/2000/svg">
<g clip-path="url(#clip0)">
<path d="M27.5951 90.0078C27.5951 75.6246 27.5951 61.3255 27.5951 46.69C21.9539 46.69 16.4811 46.69 10.8399 46.69C10.8399 43.1573 10.8399 39.8769 10.8399 36.5966C25.3217 36.5966 39.7194 36.5966 54.2013 36.5966C54.2013 39.8769 54.2013 43.0732 54.2013 46.5218C48.6443 46.5218 43.2557 46.5218 37.6987 46.5218C37.6145 47.447 37.5303 48.0358 37.5303 48.6246C37.5303 61.8302 37.5303 75.0358 37.5303 88.2414C37.5303 88.8302 37.6987 89.5031 37.7829 90.0919C34.415 90.0078 30.9629 90.0078 27.5951 90.0078Z" fill="white"/>
<path d="M14.1236 54.176C14.1236 56.9517 14.1236 59.9798 14.1236 63.176C16.3969 63.176 18.4176 63.176 20.5225 63.176C20.5225 66.6246 20.5225 69.7368 20.5225 73.1854C18.4176 73.1854 16.3969 73.1854 14.0394 73.1854C14.0394 76.4657 14.0394 79.4097 14.0394 82.1013C9.32434 77.391 4.52512 72.6807 0.0626831 68.2228C4.35672 63.8489 9.15595 59.0545 14.1236 54.176Z" fill="#FFC20F"/>
<path d="M44.3503 73.4377C44.3503 69.8209 44.3503 66.7087 44.3503 63.3442C46.5394 63.3442 48.6443 63.3442 51.0018 63.3442C51.0018 60.0639 51.0018 57.0358 51.0018 54.3442C55.801 59.0545 60.5161 63.8489 65.0627 68.391C60.7686 72.6807 56.0536 77.391 51.1702 82.2695C51.1702 79.5779 51.1702 76.7181 51.1702 73.5218C48.8127 73.4377 46.7078 73.4377 44.3503 73.4377Z" fill="#FFC20F"/>
<path d="M46.1391 15.5686C46.1391 23.0561 40.0626 29.1293 32.5627 29.1293C25.0627 29.1293 18.9863 23.0561 18.9863 15.5686C18.9863 8.08106 25.0627 2.00781 32.5627 2.00781C40.0626 2.00781 46.1391 8.08106 46.1391 15.5686Z" stroke="white" stroke-width="4"/>
</g>
<defs>
<clipPath id="clip0">
<rect width="65" height="90" fill="white" transform="translate(0.0626831 0.0078125)"/>
</clipPath>
</defs>
</svg>
