<svg width="100" height="99" viewBox="0 0 100 99" fill="none" xmlns="http://www.w3.org/2000/svg">
<g clip-path="url(#clip0)">
<path d="M42.627 11.4319C43.8767 11.6233 45.0469 11.7697 46.1944 11.9836C49.2618 12.5578 52.2271 13.4811 55.0787 14.7534C60.407 17.1403 64.9514 20.5293 68.7233 24.9542C72.586 29.4804 75.29 34.6146 76.7669 40.3793C77.8121 44.4664 78.187 48.621 77.8462 52.8207C77.4826 57.2681 76.4033 61.524 74.5401 65.5999C73.1995 68.5273 71.5635 71.2745 69.5299 73.7741C66.5533 77.4333 63.0655 80.507 58.9755 82.9278C55.1128 85.2021 51.0001 86.7672 46.6147 87.6454C44.1835 88.1408 41.7181 88.3547 39.2301 88.3434C29.8913 88.3322 20.5639 88.3322 11.2251 88.3209C10.1685 88.3209 9.10061 88.3434 8.04403 88.3322C6.14674 88.3209 4.71525 86.9361 4.70389 85.1458C4.70389 83.2993 6.1581 81.8469 8.06675 81.8356C11.5546 81.8244 15.0311 81.8356 18.5189 81.8356C25.6536 81.8356 32.7884 81.8919 39.9344 81.8244C44.0131 81.7793 47.944 80.8786 51.7045 79.2798C56.0103 77.4558 59.7594 74.8549 62.9178 71.4321C66.826 67.1874 69.405 62.2672 70.6433 56.6488C71.8249 51.2782 71.609 45.9639 70.0525 40.6945C69.2573 38.0261 68.1098 35.5041 66.6442 33.1284C63.3836 27.8703 58.9414 23.8846 53.3859 21.1261C50.2162 19.5498 46.8533 18.5815 43.3427 18.1086C43.2859 18.0974 43.2291 18.1086 43.0701 18.1086C43.3996 18.4576 43.6722 18.7616 43.9676 19.0431C45.1719 20.2366 46.3875 21.4188 47.5918 22.6123C48.5234 23.5468 48.9324 24.6615 48.5461 25.9563C48.1485 27.2849 47.2055 28.0617 45.8308 28.2757C44.7288 28.4445 43.7858 28.0617 43.0019 27.2849C39.9458 24.2674 36.901 21.2387 33.8449 18.2212C33.5155 17.8947 33.1292 17.6132 32.7656 17.3205C31.2887 16.1383 31.1069 13.6837 32.4362 12.3439C35.3105 9.47281 38.2076 6.62424 41.0933 3.7644C41.7295 3.13389 42.3657 2.49211 43.0133 1.8616C44.3425 0.544273 46.4443 0.510496 47.7054 1.77153C49.0233 3.08885 49.0119 5.10425 47.6599 6.46661C46.1262 7.99786 44.5925 9.51785 43.0474 11.0378C42.8883 11.1504 42.7861 11.2743 42.627 11.4319Z" fill="white"/>
<path d="M25.8467 79.1109C21.8022 79.1109 17.9395 79.1109 14.0881 79.0997C13.9063 79.0997 13.6791 79.0096 13.5427 78.8857C8.53253 74.5284 4.84019 69.2591 2.5339 63.0441C0.488918 57.5158 -0.215466 51.8074 0.375307 45.9639C1.00016 39.8952 2.96562 34.2881 6.28304 29.1426C9.08922 24.7853 12.6339 21.1486 16.8942 18.1874C18.9847 16.735 21.2114 15.5077 23.5632 14.5057C25.2219 13.8076 27.1305 14.6408 27.8576 16.3634C28.5166 17.9172 27.6872 19.8313 26.074 20.5406C21.5863 22.4884 17.7463 25.3258 14.5539 28.9963C10.8275 33.2973 8.39619 38.2288 7.32826 43.7908C6.26032 49.3304 6.63523 54.8023 8.46436 60.1504C10.2367 65.3297 13.1792 69.7658 17.2464 73.4588C19.7004 75.6881 22.4498 77.5009 25.4718 78.8745C25.5627 78.9195 25.6309 78.9758 25.8467 79.1109Z" fill="white"/>
<path d="M87.8212 81.7119C86.2306 80.1356 84.6287 78.5706 83.0382 76.9943C82.0498 76.0035 81.7771 74.81 82.2429 73.5264C82.7087 72.2316 83.7312 71.5223 85.1172 71.3984C86.0943 71.3196 86.9464 71.6574 87.6394 72.3442C91.1386 75.8008 94.6264 79.2574 98.1143 82.7252C99.5798 84.1889 99.5457 86.0917 98.0688 87.5554C94.5923 91.0007 91.1159 94.4573 87.628 97.9026C86.367 99.1524 84.3106 99.1636 83.0268 97.9251C81.743 96.6866 81.6862 94.6374 82.9359 93.3651C84.4015 91.8789 85.8898 90.4152 87.3781 88.9403C87.5485 88.7714 87.753 88.6363 87.9348 88.4899C87.9007 88.4449 87.8553 88.3998 87.8212 88.3435C76.7555 88.3435 65.6899 88.3435 54.6129 88.3435C54.6015 88.321 54.6015 88.2872 54.5902 88.2647C55.1923 87.9945 55.7944 87.7243 56.3966 87.4653C59.5663 86.0917 62.4634 84.2677 65.1559 82.1172C65.3832 81.9371 65.7353 81.847 66.0307 81.847C73.0973 81.8357 80.1525 81.8357 87.219 81.8357C87.4008 81.8357 87.5826 81.8357 87.7644 81.8357C87.7871 81.8019 87.7984 81.7569 87.8212 81.7119Z" fill="#FFC20F"/>
</g>
<defs>
<clipPath id="clip0">
<rect width="99" height="98" fill="white" transform="translate(0.18219 0.848267)"/>
</clipPath>
</defs>
</svg>
