<svg width="67" height="56" viewBox="0 0 67 56" fill="none" xmlns="http://www.w3.org/2000/svg">
<path d="M53.4416 38.7135C51.6516 38.3262 49.9465 37.9106 48.2319 37.58C41.7599 36.3238 35.2503 35.8515 28.6746 36.6638C28.034 36.7394 27.4028 36.8244 26.7717 36.9566C26.3854 37.0322 26.2064 36.9661 26.0745 36.5505C24.5201 31.5631 22.9469 26.5758 21.383 21.5885C21.0156 20.4361 20.6671 19.2838 20.2902 18.1314C20.2055 17.8764 20.2243 17.7441 20.4881 17.6213C25.9992 15.0238 30.8885 11.5005 35.2597 7.26886C37.2851 5.30416 39.1693 3.19777 41.1288 1.15751C41.2324 1.04416 41.336 0.930811 41.5056 0.751343C45.4999 13.4274 49.466 26.0374 53.4416 38.7135Z" fill="#0052E4"/>
<path d="M16.8988 18.8304C18.9148 25.2534 20.9214 31.6293 22.9375 38.0523C22.6643 38.1468 22.4193 38.2412 22.1744 38.3168C19.1975 39.2519 16.2488 40.2437 13.253 41.0938C7.51583 42.7279 1.43008 38.6002 0.751791 32.6589C0.177131 27.6621 2.92796 23.3076 7.70424 21.7302C10.6812 20.7479 13.6769 19.8316 16.6727 18.8871C16.7198 18.8682 16.7858 18.8587 16.8988 18.8304Z" fill="#0052E4"/>
<path d="M13.8559 44.2676C15.6459 43.7009 17.3698 43.1625 19.1032 42.6052C20.5823 42.1329 22.0613 41.67 23.5404 41.1789C23.8607 41.075 24.0302 41.1127 24.2281 41.4056C25.6412 43.5214 27.0731 45.6183 28.4956 47.7247C29.2681 48.8676 30.2761 49.6989 31.5385 50.2278C32.4335 50.6056 32.8103 51.144 32.7726 52.013C32.7444 52.7781 32.2639 53.3354 31.3972 53.6094C29.221 54.2989 27.0354 54.9884 24.8593 55.678C23.2954 56.1691 21.9483 55.7063 20.9874 54.3556C18.6793 51.1063 16.3712 47.857 14.0632 44.5982C14.0067 44.5226 13.9501 44.4282 13.8559 44.2676Z" fill="#0052E4"/>
<path d="M64.2847 30.9208C62.9753 30.2408 61.7035 29.5701 60.394 28.89C62.5419 24.4978 63.0224 19.9922 61.5621 15.326C60.1019 10.6599 57.1344 7.23108 52.8292 4.84133C53.5169 3.52838 54.1858 2.23432 54.8641 0.930817C66.0746 6.58878 69.8712 20.6817 64.2847 30.9208Z" fill="#FFD046"/>
<path d="M57.5113 27.3882C56.2395 26.727 54.9959 26.0752 53.7713 25.4329C56.0982 19.5955 54.6191 14.986 49.3812 11.4817C50.003 10.2821 50.653 9.02578 51.303 7.7695C57.9823 10.8677 61.4868 19.9639 57.5113 27.3882Z" fill="#FFD046"/>
</svg>
