<svg width="19" height="19" viewBox="0 0 19 19" fill="none" xmlns="http://www.w3.org/2000/svg">
<path d="M4.5094 8.01461C5.9494 10.8446 8.2694 13.1546 11.0994 14.6046L13.2994 12.4046C13.5694 12.1346 13.9694 12.0446 14.3194 12.1646C15.4394 12.5346 16.6494 12.7346 17.8894 12.7346C18.4394 12.7346 18.8894 13.1846 18.8894 13.7346V17.2246C18.8894 17.7746 18.4394 18.2246 17.8894 18.2246C8.4994 18.2246 0.889404 10.6146 0.889404 1.22461C0.889404 0.674609 1.3394 0.224609 1.8894 0.224609H5.3894C5.9394 0.224609 6.3894 0.674609 6.3894 1.22461C6.3894 2.47461 6.5894 3.67461 6.9594 4.79461C7.0694 5.14461 6.9894 5.53461 6.7094 5.81461L4.5094 8.01461Z" fill="white"/>
</svg>
